# xmcd CD database file
#
# Track frame offsets:
#	150
#	15330
#	33535
#	44574
#	58534
#	72381
#	88423
#	102955
#	115655
#	130280
#
# Disc length: 1931 seconds
#
# Revision: 0
# Processed by: cddbd v1.5.1PL0 Copyright (c) Steve Scherf et al.
# Submitted via: CDex 1.50
#
DISCID=8807890a
DTITLE=Souvenirs Country - vol 2
DYEAR=2001
DGENRE=Country
TTITLE0=Je suis prete mais j'attend
TTITLE1=Le train qui siffle
TTITLE2=Je te rejoindrai
TTITLE3=Réponds moi
TTITLE4=As tu déja pleuré
TTITLE5=Grand père
TTITLE6=L'amour ensemble
TTITLE7=The gambler
TTITLE8=Les violons d'Acadie
TTITLE9=Marin
EXTD=YEAR: 2001
EXTT0=
EXTT1=
EXTT2=
EXTT3=
EXTT4=
EXTT5=
EXTT6=
EXTT7=
EXTT8=
EXTT9=
PLAYORDER=
